<svg width="30" height="30" viewBox="0 0 30 30" fill="none" xmlns="http://www.w3.org/2000/svg">
<path d="M14.9998 0.280029C6.87773 0.280029 0.279785 6.87798 0.279785 15C0.279785 23.1221 6.87773 29.72 14.9998 29.72C23.1218 29.72 29.7198 23.1221 29.7198 15C29.7198 6.87798 23.1218 0.280029 14.9998 0.280029ZM14.9998 1.56003C22.4301 1.56003 28.4398 7.56974 28.4398 15C28.4398 22.4303 22.4301 28.44 14.9998 28.44C7.5695 28.44 1.55979 22.4303 1.55979 15C1.55979 7.56974 7.5695 1.56003 14.9998 1.56003ZM14.9898 9.87128C14.8203 9.87393 14.6587 9.94373 14.5406 10.0654C14.4225 10.187 14.3575 10.3505 14.3598 10.52V14.36H10.5198C10.435 14.3588 10.3508 14.3745 10.2721 14.4061C10.1934 14.4377 10.1217 14.4847 10.0614 14.5442C10.001 14.6038 9.953 14.6748 9.92026 14.753C9.88753 14.8312 9.87067 14.9152 9.87067 15C9.87067 15.0848 9.88753 15.1688 9.92026 15.2471C9.953 15.3253 10.001 15.3963 10.0614 15.4558C10.1217 15.5154 10.1934 15.5623 10.2721 15.5939C10.3508 15.6256 10.435 15.6412 10.5198 15.64H14.3598V19.48C14.3586 19.5648 14.3743 19.649 14.4059 19.7277C14.4375 19.8064 14.4845 19.8781 14.544 19.9385C14.6036 19.9989 14.6745 20.0468 14.7528 20.0796C14.831 20.1123 14.915 20.1291 14.9998 20.1291C15.0846 20.1291 15.1686 20.1123 15.2468 20.0796C15.3251 20.0468 15.396 19.9989 15.4556 19.9385C15.5151 19.8781 15.5621 19.8064 15.5937 19.7277C15.6253 19.649 15.641 19.5648 15.6398 19.48V15.64H19.4798C19.5646 15.6412 19.6488 15.6256 19.7275 15.5939C19.8062 15.5623 19.8778 15.5154 19.9382 15.4558C19.9986 15.3963 20.0466 15.3253 20.0793 15.2471C20.112 15.1688 20.1289 15.0848 20.1289 15C20.1289 14.9152 20.112 14.8312 20.0793 14.753C20.0466 14.6748 19.9986 14.6038 19.9382 14.5442C19.8778 14.4847 19.8062 14.4377 19.7275 14.4061C19.6488 14.3745 19.5646 14.3588 19.4798 14.36H15.6398V10.52C15.641 10.4344 15.6249 10.3494 15.5927 10.2701C15.5604 10.1908 15.5125 10.1187 15.4519 10.0582C15.3913 9.99774 15.3192 9.95003 15.2398 9.91791C15.1604 9.8858 15.0754 9.86994 14.9898 9.87128Z" fill="#112A62"/>
</svg>
