<svg width="24" height="24" viewBox="0 0 24 24" fill="none" xmlns="http://www.w3.org/2000/svg">
<path d="M11.9999 6C15.7899 6 19.1699 8.13 20.8199 11.5C20.2299 12.72 19.3999 13.77 18.4099 14.62L19.8199 16.03C21.2099 14.8 22.3099 13.26 22.9999 11.5C21.2699 7.11 16.9999 4 11.9999 4C10.7299 4 9.50986 4.2 8.35986 4.57L10.0099 6.22C10.6599 6.09 11.3199 6 11.9999 6Z" fill="#112A62"/>
<path d="M10.9302 7.14L13.0002 9.21C13.5702 9.46 14.0302 9.92 14.2802 10.49L16.3502 12.56C16.4302 12.22 16.4902 11.86 16.4902 11.49C16.5002 9.01 14.4802 7 12.0002 7C11.6302 7 11.2802 7.05 10.9302 7.14Z" fill="#112A62"/>
<path d="M2.01 3.86995L4.69 6.54995C3.06 7.82995 1.77 9.52995 1 11.5C2.73 15.89 7 19 12 19C13.52 19 14.98 18.71 16.32 18.18L19.74 21.6L21.15 20.19L3.42 2.44995L2.01 3.86995ZM9.51 11.37L12.12 13.98C12.08 13.99 12.04 14 12 14C10.62 14 9.5 12.88 9.5 11.5C9.5 11.45 9.51 11.42 9.51 11.37ZM6.11 7.96995L7.86 9.71995C7.63 10.27 7.5 10.87 7.5 11.5C7.5 13.98 9.52 16 12 16C12.63 16 13.23 15.87 13.77 15.64L14.75 16.62C13.87 16.86 12.95 17 12 17C8.21 17 4.83 14.87 3.18 11.5C3.88 10.07 4.9 8.88995 6.11 7.96995Z" fill="#112A62"/>
</svg>
