<svg width="80" height="32" viewBox="0 0 80 32" fill="none" xmlns="http://www.w3.org/2000/svg">
<path d="M0 2L15.0107 5.82716V29.747L0 25.7603V2Z" fill="#54C270"/>
<path d="M16.3755 5.87352L30.4764 2V25.7154L16.3755 29.747V5.87352Z" fill="#112A62"/>
<path d="M48.5081 10.9655V7.91786H44.5342V6.54345C44.5342 5.52757 44.6239 4.69097 45.1019 4.21291C45.4007 3.88425 45.8489 3.70498 46.566 3.70498C47.1635 3.70498 47.6715 3.79461 48.1495 3.97388L48.7172 0.956143C47.9105 0.687236 47.044 0.537842 46.2074 0.537842C44.1159 0.537842 42.7714 1.13541 41.9647 2.21105C41.2177 3.19704 40.9189 4.57146 40.9189 6.27454V7.91786H39.2158V10.9655H40.9189V23.3054H44.5342V10.9655H48.5081ZM54.4539 0.896386H50.8386V23.3054H54.4539V0.896386ZM61.0606 23.3054V7.91786H57.4453V23.3054H61.0606ZM61.0606 5.40806V2.03177H57.4453V5.40806H61.0606ZM64.0629 7.91786V30.775H67.6783V21.7517C68.8734 23.0663 70.696 23.6639 72.3094 23.6639C76.7016 23.6639 79.7492 19.8693 79.7492 15.6564C79.7492 11.1448 76.5821 7.55932 72.3692 7.55932C70.6661 7.55932 68.6344 8.24653 67.5587 9.88985L67.3496 7.91786H64.0629ZM67.6783 13.1167C68.5447 11.4435 70.2179 10.7265 71.682 10.7265C74.3711 10.7265 76.0741 13.057 76.0741 15.5668C76.0741 17.9272 74.64 20.4968 71.6222 20.4968C70.1881 20.4968 68.724 19.8992 67.6783 18.5546V13.1167Z" fill="#112A62"/>
</svg>
